name Walk3.mot
datacolumns 19
datarows 10
range 1.27600000 1.28500000
endheader

                time	   L_ground_force_vx	   L_ground_force_vy	   L_ground_force_vz	   L_ground_force_px	   L_ground_force_py	   L_ground_force_pz	   R_ground_force_vx	   R_ground_force_vy	   R_ground_force_vz	   R_ground_force_px	   R_ground_force_py	   R_ground_force_pz	   L_ground_torque_x	   L_ground_torque_y	   L_ground_torque_z	   R_ground_torque_x	   R_ground_torque_y	   R_ground_torque_z	
          1.27600000	          7.57872604	        719.73287861	         34.93147004	         -0.27075437	          0.00000000	         -0.04149933	         -0.00630705	          0.15753583	          0.00686716	          0.00015508	          0.00000000	          0.00007396	          0.00000000	          0.31605042	          0.00000000	          0.00000000	          0.00035510	          0.00000000	
          1.27700000	          8.34770997	        721.03720625	         35.04743902	         -0.27069539	          0.00000000	         -0.04152390	         -0.00719412	          0.16841795	          0.00729809	          0.00016258	          0.00000000	          0.00007735	          0.00000000	          0.29411991	          0.00000000	          0.00000000	          0.00045705	          0.00000000	
          1.27800000	          9.12129103	        722.34728750	         35.16262066	         -0.27063787	          0.00000000	         -0.04154847	         -0.00813391	          0.17961574	          0.00773892	          0.00017012	          0.00000000	          0.00008073	          0.00000000	          0.27201534	          0.00000000	          0.00000000	          0.00056658	          0.00000000	
          1.27900000	          9.89939814	        723.66262160	         35.27699895	         -0.27058171	          0.00000000	         -0.04157297	         -0.00912744	          0.19111230	          0.00818875	          0.00017765	          0.00000000	          0.00008409	          0.00000000	          0.24973944	          0.00000000	          0.00000000	          0.00068396	          0.00000000	
          1.28000000	         10.68197124	        724.98271322	         35.39055911	         -0.27052683	          0.00000000	         -0.04159738	         -0.01017559	          0.20288789	          0.00864656	          0.00018514	          0.00000000	          0.00008742	          0.00000000	          0.22729408	          0.00000000	          0.00000000	          0.00080942	          0.00000000	
          1.28100000	         11.46896193	        726.30707216	         35.50328683	         -0.27047314	          0.00000000	         -0.04162164	         -0.01127912	          0.21491982	          0.00911121	          0.00019257	          0.00000000	          0.00009069	          0.00000000	          0.20467961	          0.00000000	          0.00000000	          0.00094319	          0.00000000	
          1.28200000	         12.26033357	        727.63521278	         35.61516805	         -0.27042057	          0.00000000	         -0.04164572	         -0.01243862	          0.22718222	          0.00958141	          0.00019990	          0.00000000	          0.00009390	          0.00000000	          0.18189454	          0.00000000	          0.00000000	          0.00108550	          0.00000000	
          1.28300000	         13.05606058	        728.96665394	         35.72618907	         -0.27036906	          0.00000000	         -0.04166958	         -0.01365449	          0.23964587	          0.01005573	          0.00020708	          0.00000000	          0.00009701	          0.00000000	          0.15893551	          0.00000000	          0.00000000	          0.00123655	          0.00000000	
          1.28400000	         13.85612747	        730.30091999	         35.83633681	         -0.27031854	          0.00000000	         -0.04169318	         -0.01492695	          0.25227798	          0.01053259	          0.00021407	          0.00000000	          0.00010001	          0.00000000	          0.13579748	          0.00000000	          0.00000000	          0.00139653	          0.00000000	
          1.28500000	         14.66052772	        731.63754295	         35.94559914	         -0.27026896	          0.00000000	         -0.04171650	         -0.01625601	          0.26504205	          0.01101027	          0.00022083	          0.00000000	          0.00010288	          0.00000000	          0.11247431	          0.00000000	          0.00000000	          0.00156561	          0.00000000	
